<mxfile host="Electron" modified="2024-09-28T16:01:19.931Z" agent="Mozilla/5.0 (Windows NT 10.0; Win64; x64) AppleWebKit/537.36 (KHTML, like Gecko) draw.io/24.6.1 Chrome/124.0.6367.207 Electron/30.0.6 Safari/537.36" etag="7ALywVE9bwPCW_h3jcwX" version="24.6.1" type="device" pages="4">
  <diagram name="architecture" id="Ikj0Iel1SLktJTiH401s">
    <mxGraphModel dx="1418" dy="868" grid="0" gridSize="10" guides="1" tooltips="1" connect="1" arrows="1" fold="1" page="1" pageScale="1" pageWidth="1169" pageHeight="827" math="0" shadow="0">
      <root>
        <mxCell id="0" />
        <mxCell id="1" parent="0" />
        <mxCell id="LYzBIgwywdbNxtWOLwTO-1" value="Service Layer" style="text;html=1;align=center;verticalAlign=middle;whiteSpace=wrap;rounded=0;strokeColor=default;dashed=1;fontSize=24;" parent="1" vertex="1">
          <mxGeometry x="80" y="416" width="220" height="80" as="geometry" />
        </mxCell>
        <mxCell id="LYzBIgwywdbNxtWOLwTO-2" value="Storage Layer&lt;div&gt;(Distributed Porage)&lt;/div&gt;" style="text;html=1;align=center;verticalAlign=middle;whiteSpace=wrap;rounded=0;strokeColor=default;dashed=1;fontSize=24;" parent="1" vertex="1">
          <mxGeometry x="80" y="651" width="226" height="80" as="geometry" />
        </mxCell>
        <mxCell id="LYzBIgwywdbNxtWOLwTO-3" value="Pora" style="rounded=1;whiteSpace=wrap;html=1;fontSize=18;" parent="1" vertex="1">
          <mxGeometry x="400" y="651" width="120" height="80" as="geometry" />
        </mxCell>
        <mxCell id="LYzBIgwywdbNxtWOLwTO-6" value="Broker" style="rounded=1;whiteSpace=wrap;html=1;fontSize=18;" parent="1" vertex="1">
          <mxGeometry x="400" y="416" width="120" height="80" as="geometry" />
        </mxCell>
        <mxCell id="LYzBIgwywdbNxtWOLwTO-7" value="Broker" style="rounded=1;whiteSpace=wrap;html=1;fontSize=18;" parent="1" vertex="1">
          <mxGeometry x="800" y="416" width="120" height="80" as="geometry" />
        </mxCell>
        <mxCell id="LYzBIgwywdbNxtWOLwTO-8" value="Broker" style="rounded=1;whiteSpace=wrap;html=1;fontSize=18;" parent="1" vertex="1">
          <mxGeometry x="600" y="416" width="120" height="80" as="geometry" />
        </mxCell>
        <mxCell id="LYzBIgwywdbNxtWOLwTO-9" value="Client" style="text;html=1;align=center;verticalAlign=middle;whiteSpace=wrap;rounded=0;strokeColor=default;dashed=1;fontSize=24;" parent="1" vertex="1">
          <mxGeometry x="80" y="176" width="220" height="80" as="geometry" />
        </mxCell>
        <mxCell id="LYzBIgwywdbNxtWOLwTO-10" value="Consumers" style="rounded=1;whiteSpace=wrap;html=1;fontSize=18;" parent="1" vertex="1">
          <mxGeometry x="600" y="176" width="120" height="80" as="geometry" />
        </mxCell>
        <mxCell id="LYzBIgwywdbNxtWOLwTO-11" value="Producers" style="rounded=1;whiteSpace=wrap;html=1;fontSize=18;" parent="1" vertex="1">
          <mxGeometry x="400" y="176" width="120" height="80" as="geometry" />
        </mxCell>
        <mxCell id="LYzBIgwywdbNxtWOLwTO-12" value="Administrators" style="rounded=1;whiteSpace=wrap;html=1;fontSize=18;" parent="1" vertex="1">
          <mxGeometry x="800" y="176" width="120" height="80" as="geometry" />
        </mxCell>
        <mxCell id="LYzBIgwywdbNxtWOLwTO-13" value="Coordination&lt;div&gt;(etcd)&lt;/div&gt;" style="ellipse;shape=cloud;whiteSpace=wrap;html=1;fontSize=20;" parent="1" vertex="1">
          <mxGeometry x="1000" y="376" width="160" height="160" as="geometry" />
        </mxCell>
        <mxCell id="LYzBIgwywdbNxtWOLwTO-14" value="PigeonMQ" style="shape=process;whiteSpace=wrap;html=1;backgroundOutline=1;fontSize=36;" parent="1" vertex="1">
          <mxGeometry x="80" y="16" width="1000" height="120" as="geometry" />
        </mxCell>
        <mxCell id="LYzBIgwywdbNxtWOLwTO-15" value="Load Balancer" style="rounded=1;whiteSpace=wrap;html=1;" parent="1" vertex="1">
          <mxGeometry x="440" y="306" width="440" height="60" as="geometry" />
        </mxCell>
        <mxCell id="iveD88yHZQinij5gi3Ob-1" value="Pora" style="rounded=1;whiteSpace=wrap;html=1;fontSize=18;" parent="1" vertex="1">
          <mxGeometry x="700" y="651" width="120" height="80" as="geometry" />
        </mxCell>
        <mxCell id="iveD88yHZQinij5gi3Ob-2" value="Pora" style="rounded=1;whiteSpace=wrap;html=1;fontSize=18;" parent="1" vertex="1">
          <mxGeometry x="550" y="651" width="120" height="80" as="geometry" />
        </mxCell>
        <mxCell id="iveD88yHZQinij5gi3Ob-3" value="Pora" style="rounded=1;whiteSpace=wrap;html=1;fontSize=18;" parent="1" vertex="1">
          <mxGeometry x="850" y="651" width="120" height="80" as="geometry" />
        </mxCell>
      </root>
    </mxGraphModel>
  </diagram>
  <diagram id="4KRt0efunrhl_oo7vZ1e" name="broker">
    <mxGraphModel dx="1221" dy="871" grid="0" gridSize="10" guides="1" tooltips="1" connect="1" arrows="1" fold="1" page="1" pageScale="1" pageWidth="1169" pageHeight="827" math="0" shadow="0">
      <root>
        <mxCell id="0" />
        <mxCell id="1" parent="0" />
        <mxCell id="35p5PaKZiYuoB-pzDqJn-1" value="Broker" style="swimlane;whiteSpace=wrap;html=1;startSize=40;" vertex="1" parent="1">
          <mxGeometry x="371" y="197" width="400" height="420" as="geometry" />
        </mxCell>
        <mxCell id="35p5PaKZiYuoB-pzDqJn-2" value="Managed&lt;div&gt;Ledger&lt;/div&gt;" style="rounded=1;whiteSpace=wrap;html=1;" vertex="1" parent="35p5PaKZiYuoB-pzDqJn-1">
          <mxGeometry x="140" y="320" width="120" height="40" as="geometry" />
        </mxCell>
      </root>
    </mxGraphModel>
  </diagram>
  <diagram id="iWpKqlRpDps2MaTViVZ3" name="managed-ledger">
    <mxGraphModel dx="1418" dy="868" grid="0" gridSize="10" guides="1" tooltips="1" connect="1" arrows="1" fold="1" page="1" pageScale="1" pageWidth="1169" pageHeight="827" background="#E3E3E3" math="0" shadow="0">
      <root>
        <mxCell id="0" />
        <mxCell id="1" parent="0" />
        <mxCell id="cBgSfgA7K-SIgMhnOa9--1" value="Distribution Coordination Metadata(etcd)" style="ellipse;shape=cloud;whiteSpace=wrap;html=1;fontSize=18;fillColor=#f8cecc;strokeColor=#b85450;" parent="1" vertex="1">
          <mxGeometry x="64" y="302" width="273" height="128" as="geometry" />
        </mxCell>
        <mxCell id="cBgSfgA7K-SIgMhnOa9--2" value="Writer" style="rounded=1;whiteSpace=wrap;html=1;fontSize=16;fillColor=#fff2cc;strokeColor=#d6b656;" parent="1" vertex="1">
          <mxGeometry x="554" y="249" width="120" height="60" as="geometry" />
        </mxCell>
        <mxCell id="cBgSfgA7K-SIgMhnOa9--3" value="&lt;font style=&quot;font-size: 16px;&quot;&gt;Pora Cluster&lt;/font&gt;" style="swimlane;whiteSpace=wrap;html=1;startSize=37;fillColor=#0050ef;fontColor=#ffffff;strokeColor=#001DBC;" parent="1" vertex="1">
          <mxGeometry x="382" y="394" width="664" height="240" as="geometry" />
        </mxCell>
        <mxCell id="cBgSfgA7K-SIgMhnOa9--4" value="Pora #1" style="rounded=1;whiteSpace=wrap;html=1;fontSize=16;fillColor=#dae8fc;strokeColor=#6c8ebf;" parent="cBgSfgA7K-SIgMhnOa9--3" vertex="1">
          <mxGeometry x="48" y="90" width="120" height="60" as="geometry" />
        </mxCell>
        <mxCell id="cBgSfgA7K-SIgMhnOa9--5" value="Pora #2" style="rounded=1;whiteSpace=wrap;html=1;fontSize=16;fillColor=#dae8fc;strokeColor=#6c8ebf;" parent="cBgSfgA7K-SIgMhnOa9--3" vertex="1">
          <mxGeometry x="185" y="90" width="120" height="60" as="geometry" />
        </mxCell>
        <mxCell id="cBgSfgA7K-SIgMhnOa9--6" value="Pora #3" style="rounded=1;whiteSpace=wrap;html=1;fontSize=16;fillColor=#dae8fc;strokeColor=#6c8ebf;" parent="cBgSfgA7K-SIgMhnOa9--3" vertex="1">
          <mxGeometry x="329" y="90" width="120" height="60" as="geometry" />
        </mxCell>
        <mxCell id="cBgSfgA7K-SIgMhnOa9--7" value="Pora #4" style="rounded=1;whiteSpace=wrap;html=1;fontSize=16;fillColor=#dae8fc;strokeColor=#6c8ebf;" parent="cBgSfgA7K-SIgMhnOa9--3" vertex="1">
          <mxGeometry x="477" y="90" width="120" height="60" as="geometry" />
        </mxCell>
        <mxCell id="cBgSfgA7K-SIgMhnOa9--8" value="Pora #5" style="rounded=1;whiteSpace=wrap;html=1;fontSize=16;fillColor=#dae8fc;strokeColor=#6c8ebf;shadow=0;sketch=1;curveFitting=1;jiggle=2;" parent="cBgSfgA7K-SIgMhnOa9--3" vertex="1">
          <mxGeometry x="262" y="169" width="120" height="60" as="geometry" />
        </mxCell>
        <mxCell id="cBgSfgA7K-SIgMhnOa9--9" value="Readers" style="verticalLabelPosition=middle;verticalAlign=middle;html=1;shape=mxgraph.basic.layered_rect;dx=10;outlineConnect=0;whiteSpace=wrap;labelPosition=center;align=center;fillColor=#d5e8d4;strokeColor=#82b366;fontSize=16;" parent="1" vertex="1">
          <mxGeometry x="777" y="247" width="125" height="75" as="geometry" />
        </mxCell>
      </root>
    </mxGraphModel>
  </diagram>
  <diagram id="feNvpYhTXxh7KluhzLsQ" name="storage-data-model">
    <mxGraphModel dx="1418" dy="868" grid="0" gridSize="10" guides="1" tooltips="1" connect="1" arrows="1" fold="1" page="1" pageScale="1" pageWidth="1169" pageHeight="827" background="#E3E3E3" math="0" shadow="0">
      <root>
        <mxCell id="0" />
        <mxCell id="1" parent="0" />
        <mxCell id="dlht_RxV3E-BNidVgkny-1" value="Pora Cluster" style="swimlane;whiteSpace=wrap;html=1;fillColor=#0050ef;fontColor=#ffffff;strokeColor=#001DBC;startSize=38;fontSize=16;" parent="1" vertex="1">
          <mxGeometry x="132" y="181" width="927" height="415" as="geometry" />
        </mxCell>
        <mxCell id="dlht_RxV3E-BNidVgkny-2" value="&lt;font style=&quot;font-size: 24px;&quot;&gt;Pora#1&lt;/font&gt;" style="swimlane;fontStyle=0;childLayout=stackLayout;horizontal=1;startSize=30;horizontalStack=0;resizeParent=1;resizeParentMax=0;resizeLast=0;collapsible=1;marginBottom=0;whiteSpace=wrap;html=1;fillColor=#dae8fc;strokeColor=#6c8ebf;fontSize=16;" parent="dlht_RxV3E-BNidVgkny-1" vertex="1">
          <mxGeometry x="87" y="93" width="152" height="120" as="geometry" />
        </mxCell>
        <mxCell id="dlht_RxV3E-BNidVgkny-3" value="entry #1" style="text;strokeColor=#666666;fillColor=#f5f5f5;align=left;verticalAlign=middle;spacingLeft=4;spacingRight=4;overflow=hidden;points=[[0,0.5],[1,0.5]];portConstraint=eastwest;rotatable=0;whiteSpace=wrap;html=1;fontSize=16;fontColor=#333333;" parent="dlht_RxV3E-BNidVgkny-2" vertex="1">
          <mxGeometry y="30" width="152" height="30" as="geometry" />
        </mxCell>
        <mxCell id="dlht_RxV3E-BNidVgkny-4" value="entry #3" style="text;strokeColor=#666666;fillColor=#f5f5f5;align=left;verticalAlign=middle;spacingLeft=4;spacingRight=4;overflow=hidden;points=[[0,0.5],[1,0.5]];portConstraint=eastwest;rotatable=0;whiteSpace=wrap;html=1;fontSize=16;fontColor=#333333;" parent="dlht_RxV3E-BNidVgkny-2" vertex="1">
          <mxGeometry y="60" width="152" height="30" as="geometry" />
        </mxCell>
        <mxCell id="dlht_RxV3E-BNidVgkny-5" value="entry #4" style="text;strokeColor=#666666;fillColor=#f5f5f5;align=left;verticalAlign=middle;spacingLeft=4;spacingRight=4;overflow=hidden;points=[[0,0.5],[1,0.5]];portConstraint=eastwest;rotatable=0;whiteSpace=wrap;html=1;fontSize=16;fontColor=#333333;" parent="dlht_RxV3E-BNidVgkny-2" vertex="1">
          <mxGeometry y="90" width="152" height="30" as="geometry" />
        </mxCell>
        <mxCell id="dlht_RxV3E-BNidVgkny-6" value="&lt;font style=&quot;font-size: 24px;&quot;&gt;Pora#2&lt;/font&gt;" style="swimlane;fontStyle=0;childLayout=stackLayout;horizontal=1;startSize=30;horizontalStack=0;resizeParent=1;resizeParentMax=0;resizeLast=0;collapsible=1;marginBottom=0;whiteSpace=wrap;html=1;fillColor=#dae8fc;strokeColor=#6c8ebf;fontSize=16;" parent="dlht_RxV3E-BNidVgkny-1" vertex="1">
          <mxGeometry x="285" y="93" width="152" height="120" as="geometry" />
        </mxCell>
        <mxCell id="dlht_RxV3E-BNidVgkny-7" value="entry #1" style="text;strokeColor=#666666;fillColor=#f5f5f5;align=left;verticalAlign=middle;spacingLeft=4;spacingRight=4;overflow=hidden;points=[[0,0.5],[1,0.5]];portConstraint=eastwest;rotatable=0;whiteSpace=wrap;html=1;fontSize=16;fontColor=#333333;" parent="dlht_RxV3E-BNidVgkny-6" vertex="1">
          <mxGeometry y="30" width="152" height="30" as="geometry" />
        </mxCell>
        <mxCell id="dlht_RxV3E-BNidVgkny-8" value="entry #2" style="text;strokeColor=#666666;fillColor=#f5f5f5;align=left;verticalAlign=middle;spacingLeft=4;spacingRight=4;overflow=hidden;points=[[0,0.5],[1,0.5]];portConstraint=eastwest;rotatable=0;whiteSpace=wrap;html=1;fontSize=16;fontColor=#333333;" parent="dlht_RxV3E-BNidVgkny-6" vertex="1">
          <mxGeometry y="60" width="152" height="30" as="geometry" />
        </mxCell>
        <mxCell id="dlht_RxV3E-BNidVgkny-9" value="entry #4" style="text;strokeColor=#666666;fillColor=#f5f5f5;align=left;verticalAlign=middle;spacingLeft=4;spacingRight=4;overflow=hidden;points=[[0,0.5],[1,0.5]];portConstraint=eastwest;rotatable=0;whiteSpace=wrap;html=1;fontSize=16;fontColor=#333333;" parent="dlht_RxV3E-BNidVgkny-6" vertex="1">
          <mxGeometry y="90" width="152" height="30" as="geometry" />
        </mxCell>
        <mxCell id="dlht_RxV3E-BNidVgkny-10" value="&lt;font style=&quot;font-size: 24px;&quot;&gt;Pora#3&lt;/font&gt;" style="swimlane;fontStyle=0;childLayout=stackLayout;horizontal=1;startSize=30;horizontalStack=0;resizeParent=1;resizeParentMax=0;resizeLast=0;collapsible=1;marginBottom=0;whiteSpace=wrap;html=1;fillColor=#dae8fc;strokeColor=#6c8ebf;fontSize=16;" parent="dlht_RxV3E-BNidVgkny-1" vertex="1">
          <mxGeometry x="470" y="93" width="152" height="120" as="geometry" />
        </mxCell>
        <mxCell id="dlht_RxV3E-BNidVgkny-11" value="entry #1" style="text;strokeColor=#666666;fillColor=#f5f5f5;align=left;verticalAlign=middle;spacingLeft=4;spacingRight=4;overflow=hidden;points=[[0,0.5],[1,0.5]];portConstraint=eastwest;rotatable=0;whiteSpace=wrap;html=1;fontSize=16;fontColor=#333333;" parent="dlht_RxV3E-BNidVgkny-10" vertex="1">
          <mxGeometry y="30" width="152" height="30" as="geometry" />
        </mxCell>
        <mxCell id="dlht_RxV3E-BNidVgkny-12" value="entry #2" style="text;strokeColor=#666666;fillColor=#f5f5f5;align=left;verticalAlign=middle;spacingLeft=4;spacingRight=4;overflow=hidden;points=[[0,0.5],[1,0.5]];portConstraint=eastwest;rotatable=0;whiteSpace=wrap;html=1;fontSize=16;fontColor=#333333;" parent="dlht_RxV3E-BNidVgkny-10" vertex="1">
          <mxGeometry y="60" width="152" height="30" as="geometry" />
        </mxCell>
        <mxCell id="dlht_RxV3E-BNidVgkny-13" value="entry #3" style="text;strokeColor=#666666;fillColor=#f5f5f5;align=left;verticalAlign=middle;spacingLeft=4;spacingRight=4;overflow=hidden;points=[[0,0.5],[1,0.5]];portConstraint=eastwest;rotatable=0;whiteSpace=wrap;html=1;fontSize=16;fontColor=#333333;" parent="dlht_RxV3E-BNidVgkny-10" vertex="1">
          <mxGeometry y="90" width="152" height="30" as="geometry" />
        </mxCell>
        <mxCell id="dlht_RxV3E-BNidVgkny-14" value="&lt;font style=&quot;font-size: 24px;&quot;&gt;Pora#4&lt;/font&gt;" style="swimlane;fontStyle=0;childLayout=stackLayout;horizontal=1;startSize=30;horizontalStack=0;resizeParent=1;resizeParentMax=0;resizeLast=0;collapsible=1;marginBottom=0;whiteSpace=wrap;html=1;fillColor=#dae8fc;strokeColor=#6c8ebf;fontSize=16;" parent="dlht_RxV3E-BNidVgkny-1" vertex="1">
          <mxGeometry x="666" y="93" width="152" height="120" as="geometry" />
        </mxCell>
        <mxCell id="dlht_RxV3E-BNidVgkny-15" value="entry #2" style="text;strokeColor=#666666;fillColor=#f5f5f5;align=left;verticalAlign=middle;spacingLeft=4;spacingRight=4;overflow=hidden;points=[[0,0.5],[1,0.5]];portConstraint=eastwest;rotatable=0;whiteSpace=wrap;html=1;fontSize=16;fontColor=#333333;" parent="dlht_RxV3E-BNidVgkny-14" vertex="1">
          <mxGeometry y="30" width="152" height="30" as="geometry" />
        </mxCell>
        <mxCell id="dlht_RxV3E-BNidVgkny-16" value="entry #3" style="text;strokeColor=#666666;fillColor=#f5f5f5;align=left;verticalAlign=middle;spacingLeft=4;spacingRight=4;overflow=hidden;points=[[0,0.5],[1,0.5]];portConstraint=eastwest;rotatable=0;whiteSpace=wrap;html=1;fontSize=16;fontColor=#333333;" parent="dlht_RxV3E-BNidVgkny-14" vertex="1">
          <mxGeometry y="60" width="152" height="30" as="geometry" />
        </mxCell>
        <mxCell id="dlht_RxV3E-BNidVgkny-17" value="entry #4" style="text;strokeColor=#666666;fillColor=#f5f5f5;align=left;verticalAlign=middle;spacingLeft=4;spacingRight=4;overflow=hidden;points=[[0,0.5],[1,0.5]];portConstraint=eastwest;rotatable=0;whiteSpace=wrap;html=1;fontSize=16;fontColor=#333333;" parent="dlht_RxV3E-BNidVgkny-14" vertex="1">
          <mxGeometry y="90" width="152" height="30" as="geometry" />
        </mxCell>
      </root>
    </mxGraphModel>
  </diagram>
</mxfile>
